<?xml version="1.0" encoding="UTF-8"?>
<svg
  id="svg"
  version="1.1"
  xmlns="http://www.w3.org/2000/svg"
  viewBox="20 25.5 585 585"
  style="display:block"
>
  <!-- Right arrow -->
  <path
    d="M0 0 C1.5778125 1.36125 1.5778125 1.36125 3.1875 2.75 C6.08227817 5.21767975 9.0297015 7.6237612 12 10 C13.03125 11.19625 14.0625 12.3925 15.125 13.625 C19.10065103 18.27215944 19.10065103 18.27215944 24.5 23 C29.06632749 27.15120681 32.96720532 31.3584816 37 36 C38.98 37.7325 38.98 37.7325 41 39.5 C45 43 45 43 48.375 46.875 C52.12199257 51.30331033 52.12199257 51.30331033 57.4375 55.875 C62 60 62 60 62 62 C62.66 62 63.32 62 64 62 C66.33982253 64.66097465 68.67207503 67.32861069 71 70 C72.155 70.99 73.31 71.98 74.5 73 C78.42379994 76.36325709 81.59958872 80.11381568 85 84 C86.155 84.99 87.31 85.98 88.5 87 C92.43872953 90.37605388 95.6394616 94.04989346 99 98 C100.44375 99.60875 101.8875 101.2175 103.375 102.875 C108.27368386 108.44936439 108.4833765 110.55600194 108 118 C103.53613729 125.81175975 97.92671021 131.40157493 91.5625 137.625 C90.43005859 138.74390625 89.29761719 139.8628125 88.13085938 141.015625 C85.0928159 144.01607336 82.04680186 147.00844572 79 150 C77.35 151.65 75.7 153.3 74 155 C72.535625 156.44375 71.07125 157.8875 69.5625 159.375 C65.14333312 163.73592919 65.14333312 163.73592919 61.9375 167.625 C59 171 59 171 55.0625 174.4375 C50.98476909 177.85484444 50.98476909 177.85484444 47.80859375 181.65234375 C43.70721342 186.33422714 39.4046663 190.72777402 35 195.125 C33.47375 196.65382813 31.9475 198.18265625 30.375 199.7578125 C26.68880216 203.3321079 22.89583724 206.66216028 19 210 C18.67 210.66 18.34 211.32 18 212 C17.34 212 16.68 212 16 212 C15.34 213.32 14.68 214.64 14 216 C10.68733494 219.02280686 7.35410016 222.02323611 4 225 C3.34 225.99 2.68 226.98 2 228 C-2.68542523 225.65728738 -5.62722663 222.78154968 -9.375 219.125 C-10.66148437 217.89007813 -11.94796875 216.65515625 -13.2734375 215.3828125 C-14.17320312 214.26648438 -15.07296875 213.15015625 -16 212 C-13.5097052 207.0194104 -10.28963746 204.05035066 -6.33740234 200.11035156 C-4.69312256 198.46631348 -3.04884277 196.82227539 -1.35473633 195.12841797 C0.38396729 193.39994629 2.1226709 191.67147461 3.9140625 189.890625 C5.50436279 188.30233887 7.09466309 186.71405273 8.7331543 185.07763672 C14.69165209 179.12962575 20.6588574 173.19034282 26.625 167.25 C39.94875 153.9675 53.2725 140.685 67 127 C-8.24 126.67 -83.48 126.34 -161 126 C-161 118.08 -161 110.16 -161 102 C-85.76 102 -10.52 102 67 102 C62.1634221 96.4724824 57.40782908 91.31054585 52.19702148 86.17871094 C50.66951767 84.6706488 49.14201385 83.16258667 47.56822205 81.60882568 C45.93566971 80.00025696 44.30311737 78.39168823 42.62109375 76.734375 C39.17047654 73.31585843 35.72062928 69.89656455 32.27148438 66.4765625 C26.83329431 61.0879743 21.39082711 55.70404987 15.93530273 50.33300781 C10.67109387 45.14703761 5.42581102 39.94256163 0.18359375 34.734375 C-1.46717667 33.11770935 -3.11794708 31.5010437 -4.81874084 29.83538818 C-7.0674424 27.59220795 -7.0674424 27.59220795 -9.36157227 25.30371094 C-10.69503189 23.98659119 -12.02849152 22.66947144 -13.40235901 21.31243896 C-14.25958054 20.21933411 -15.11680206 19.12622925 -16 18 C-13.62636549 13.25273097 -10.65881494 10.46501831 -6.875 6.75 C-5.59367188 5.48671875 -4.31234375 4.2234375 -2.9921875 2.921875 C-2.00476563 1.95765625 -1.01734375 0.9934375 0 0 Z"
    transform="translate(496,200)"
    fill="#BD93F9"
  />

  <!-- Left arrow -->
  <path
    d="M0 0 C6.34914473 5.34247634 12.16832617 11.09633019 18 17 C12.39297146 23.83635094 6.13312474 30.01093285 -0.1171875 36.25 C-1.87387253 38.00812012 -1.87387253 38.00812012 -3.66604614 39.80175781 C-6.13762554 42.27401617 -8.61046211 44.74501826 -11.08447266 47.21484375 C-14.85823405 50.98325781 -18.62664216 54.75696549 -22.39453125 58.53125 C-24.80176282 60.93782064 -27.20930464 63.344081 -29.6171875 65.75 C-30.73825897 66.8730957 -31.85933044 67.99619141 -33.01437378 69.15332031 C-38.51848248 74.64107899 -44.10227145 79.93870941 -50 85 C-53.08507962 88.01876235 -56.14692822 91.06141295 -59.1875 94.125 C-61.49814453 96.44917969 -61.49814453 96.44917969 -63.85546875 98.8203125 C-65.22316406 100.19960938 -66.59085938 101.57890625 -68 103 C-71.33333333 106.33333333 -74.66666667 109.66666667 -78 113 C-75.30501141 118.38997718 -71.50549836 121.67693695 -67.20410156 125.91186523 C-64.40175018 128.68009926 -64.40175018 128.68009926 -61.54278564 131.5042572 C-60.5400486 132.49064619 -59.53731155 133.47703518 -58.50418854 134.49331474 C-55.37289985 137.57604403 -52.2499511 140.66698235 -49.12957764 143.76075745 C-40.25718448 152.55668248 -31.37833494 161.3459108 -22.47314453 170.10864258 C-17.02891583 175.4669624 -11.60168699 180.84199065 -6.1852951 186.22844124 C-4.11348049 188.28224092 -2.03523624 190.32957477 0.04936981 192.37038994 C2.95595413 195.2171157 5.83945008 198.08735861 8.72167969 200.95874023 C11.19749542 203.40219093 11.19749542 203.40219093 13.72332764 205.89500427 C17 210 17 210 15 215 C12.96337633 217.39069975 10.82709523 219.6982908 8.625 221.9375 C7.48289062 223.12214844 6.34078125 224.30679688 5.1640625 225.52734375 C4.11992187 226.34332031 3.07578125 227.15929687 2 228 C-3.98878637 225.00560682 -7.92845628 220.36088853 -12.67529297 215.64697266 C-13.76173599 214.57045944 -14.84817902 213.49394623 -15.96754456 212.3848114 C-19.56473999 208.81686339 -23.15406606 205.24113443 -26.7421875 201.6640625 C-29.22990074 199.18784748 -31.71762261 196.71164113 -34.20535278 194.23544312 C-39.41944675 189.04236733 -44.62886016 183.8446419 -49.8359375 178.64453125 C-56.52812341 171.96334436 -63.23866721 165.3009196 -69.95370293 158.64270973 C-75.09701864 153.53652037 -80.22698705 148.41708258 -85.35330582 143.29383469 C-87.82285027 140.83036805 -90.29742443 138.37193335 -92.77697372 135.91853714 C-96.23254041 132.49684339 -99.66894135 129.05699206 -103.10107422 125.61181641 C-105.0653537 123.65482819 -107.02963318 121.69783997 -109.05343628 119.68154907 C-110.35580231 118.13663788 -111.65816833 116.59172668 -113 115 C-110.00025947 109.00051894 -105.32725431 105.08949527 -100.58349609 100.35644531 C-99.50055771 99.27321487 -98.41761932 98.18998444 -97.30186462 97.07392883 C-93.71377475 93.4872346 -90.11864798 89.90768054 -86.5234375 86.328125 C-84.03721341 83.84563019 -81.5514299 81.36269405 -79.06607056 78.8793335 C-72.51754573 72.33845175 -65.96303736 65.8035978 -59.4072876 59.2699585 C-52.72104334 52.60415806 -46.04044402 45.93270555 -39.359375 39.26171875 C-26.2451183 26.16892387 -13.12453842 13.08248817 0 0 Z"
    transform="translate(133,200)"
    fill="#BD93F9"
  />

  <!-- File icon -->
  <path
    d="M0 0 C2.48286278 -0.01902626 2.48286278 -0.01902626 5.0158844 -0.03843689 C7.66465858 -0.03403343 7.66465858 -0.03403343 10.36694336 -0.02954102 C12.19970322 -0.03478287 14.03246307 -0.04002472 15.92076111 -0.04542542 C19.78798924 -0.05183757 23.65523689 -0.05051916 27.52246094 -0.04199219 C33.43907316 -0.03347277 39.35472305 -0.06227612 45.27124023 -0.09399414 C49.03230765 -0.09560601 52.79337678 -0.0950289 56.55444336 -0.09204102 C58.32231705 -0.10327499 60.09019073 -0.11450897 61.91163635 -0.12608337 C74.71813013 -0.05336511 81.49917808 1.40049743 89.64428711 11.27905273 C91.3187793 13.28225586 91.3187793 13.28225586 93.02709961 15.32592773 C94.13827148 16.67170898 95.24944336 18.01749023 96.39428711 19.40405273 C98.43126295 21.78307715 100.47274466 24.15825291 102.51928711 26.52905273 C108.1711384 33.13154392 113.78607915 39.7644502 119.39428711 46.40405273 C121.22738665 48.5709172 123.06072061 50.73758338 124.89428711 52.90405273 C125.80049805 53.97655273 126.70670898 55.04905273 127.64038086 56.15405273 C129.48067899 58.32586556 131.32707612 60.49252462 133.17944336 62.65405273 C152.5262446 85.29334758 152.5262446 85.29334758 152.49194336 102.47827148 C152.48982094 104.56943047 152.48982094 104.56943047 152.48765564 106.70283508 C152.48204767 111.16576258 152.46949376 115.62864034 152.45678711 120.09155273 C152.45177314 123.11303639 152.44721005 126.13452082 152.44311523 129.15600586 C152.43207565 136.57203772 152.4148056 143.98804037 152.39428711 151.40405273 C144.14428711 151.40405273 135.89428711 151.40405273 127.39428711 151.40405273 C127.39428711 132.92405273 127.39428711 114.44405273 127.39428711 95.40405273 C111.95747858 95.56195973 111.95747858 95.56195973 96.52124023 95.7644043 C93.62761719 95.77938965 93.62761719 95.77938965 90.67553711 95.79467773 C88.70649414 95.815625 86.73745117 95.83657227 84.70874023 95.8581543 C75.69291119 95.08778302 70.64414627 91.65385824 65.39428711 84.40405273 C63.21601455 77.86923505 63.16609094 73.09705197 63.19897461 66.22436523 C63.20396973 64.08726074 63.20896484 61.95015625 63.21411133 59.74829102 C63.23231934 57.03594238 63.25052734 54.32359375 63.26928711 51.52905273 C63.31053711 42.90780273 63.35178711 34.28655273 63.39428711 25.40405273 C40.62428711 25.40405273 17.85428711 25.40405273 -5.60571289 25.40405273 C-5.60571289 104.27405273 -5.60571289 183.14405273 -5.60571289 264.40405273 C38.28428711 264.40405273 82.17428711 264.40405273 127.39428711 264.40405273 C127.39428711 250.21405273 127.39428711 236.02405273 127.39428711 221.40405273 C135.64428711 221.40405273 143.89428711 221.40405273 152.39428711 221.40405273 C152.47523976 228.71677513 152.53478007 236.02860019 152.58178711 243.34155273 C152.61949219 246.44787109 152.61949219 246.44787109 152.65795898 249.61694336 C152.66762695 251.61821289 152.67729492 253.61948242 152.68725586 255.68139648 C152.70296631 257.51951904 152.71867676 259.3576416 152.73486328 261.25146484 C151.87953635 274.19173361 146.51992642 281.04654456 135.39428711 287.40405273 C128.52127031 289.12230693 121.45179828 288.45751873 114.39428711 288.40405273 C114.44069336 290.33249023 114.48709961 292.26092773 114.53491211 294.24780273 C114.57100586 296.77436523 114.60709961 299.30092773 114.64428711 301.90405273 C114.69069336 304.40999023 114.73709961 306.91592773 114.78491211 309.49780273 C114.13394668 321.00687146 109.39761856 328.15787335 98.75366211 333.09155273 C93.75552841 334.59636718 89.60332223 334.7000743 84.39428711 334.59155273 C82.70303711 334.56448242 81.01178711 334.53741211 79.26928711 334.50952148 C77.35116211 334.45731445 77.35116211 334.45731445 75.39428711 334.40405273 C75.44069336 336.17651367 75.48709961 337.94897461 75.53491211 339.77514648 C75.57100586 342.10706055 75.60709961 344.43897461 75.64428711 346.84155273 C75.69069336 349.15026367 75.73709961 351.45897461 75.78491211 353.83764648 C75.01896888 366.71315212 69.40301587 373.11335058 58.39428711 379.40405273 C52.12770197 380.97069902 45.92216525 380.54940767 39.47143555 380.56518555 C37.16360832 380.5726329 37.16360832 380.5726329 34.80915833 380.58023071 C29.70732174 380.59486412 24.60551625 380.6016563 19.50366211 380.60717773 C15.96372476 380.61292815 12.42378742 380.6186859 8.8838501 380.62445068 C1.45584976 380.63496399 -5.97213975 380.64080453 -13.40014648 380.64428711 C-22.92110472 380.64977288 -32.44192001 380.6738017 -41.9628334 380.70225906 C-49.27706318 380.72087656 -56.59125847 380.72609058 -63.90550995 380.72762299 C-67.41567517 380.73065196 -70.92583974 380.73868865 -74.43598175 380.75180817 C-79.34585974 380.76884947 -84.25538769 380.76699255 -89.1652832 380.76049805 C-93.35746552 380.76596649 -93.35746552 380.76596649 -97.63433838 380.77154541 C-110.34791949 380.10135506 -118.49269167 375.73112147 -124.60571289 364.40405273 C-125.81917896 359.55018847 -125.74149627 355.23283978 -125.75288391 350.22015381 C-125.76003922 348.06377884 -125.76719452 345.90740387 -125.77456665 343.6856842 C-125.77860001 340.1213987 -125.77860001 340.1213987 -125.78271484 336.48510742 C-125.78928604 333.99070602 -125.79585724 331.49630463 -125.80262756 328.92631531 C-125.818983 322.07292716 -125.83058953 315.21955499 -125.83883309 308.36615276 C-125.84398219 304.08585934 -125.85005792 299.80556808 -125.85634422 295.52527618 C-125.87539563 282.13736453 -125.88962766 268.74945839 -125.89795619 255.36153579 C-125.90773357 239.89941263 -125.93406656 224.43743244 -125.97445709 208.97535968 C-126.00459539 197.02875481 -126.01942285 185.08219098 -126.02273721 173.13554883 C-126.02509 165.99796283 -126.03408076 158.86052959 -126.05919838 151.72298431 C-126.08342154 143.76206431 -126.08265472 135.80152137 -126.07568359 127.84057617 C-126.08849365 125.47248276 -126.10130371 123.10438934 -126.11450195 120.66453552 C-126.10755814 118.49688126 -126.10061432 116.32922699 -126.09346008 114.09588623 C-126.09584844 112.21324947 -126.09823679 110.33061272 -126.10069752 108.39092636 C-124.92609371 96.557022 -118.20725248 89.9475697 -107.60571289 85.40405273 C-101.65434935 84.41215881 -96.25572779 84.30611147 -90.23071289 84.34155273 C-88.24297852 84.35057617 -86.25524414 84.35959961 -84.20727539 84.36889648 C-81.92950195 84.38629883 -81.92950195 84.38629883 -79.60571289 84.40405273 C-79.5915332 82.57100586 -79.57735352 80.73795898 -79.56274414 78.84936523 C-79.51504883 76.43366211 -79.46735352 74.01795898 -79.41821289 71.52905273 C-79.3834082 69.13913086 -79.34860352 66.74920898 -79.31274414 64.28686523 C-78.20104904 53.46472844 -74.83703622 47.17362982 -65.60571289 41.40405273 C-58.78146893 38.67435515 -52.62931212 38.9663574 -45.29321289 38.77905273 C-42.55395508 38.70428711 -39.81469727 38.62952148 -36.99243164 38.55249023 C-34.88481445 38.50350586 -32.77719727 38.45452148 -30.60571289 38.40405273 C-30.5915332 37.14850586 -30.57735352 35.89295898 -30.56274414 34.59936523 C-30.18999847 21.52304415 -29.14887671 11.29188134 -17.60571289 3.40405273 C-11.55542172 1.04694643 -6.47748439 0.02416745 0 0 Z M87.39428711 46.40405273 C87.39428711 54.65405273 87.39428711 62.90405273 87.39428711 71.40405273 C94.65428711 71.40405273 101.91428711 71.40405273 109.39428711 71.40405273 C105.20666265 65.12261604 100.50804385 59.94909016 95.39428711 54.40405273 C94.05366211 52.85717773 92.71303711 51.31030273 91.33178711 49.71655273 C89.02160011 46.27935479 89.02160011 46.27935479 87.39428711 46.40405273 Z M-54.60571289 63.40405273 C-54.60571289 144.91405273 -54.60571289 226.42405273 -54.60571289 310.40405273 C-6.75571289 310.40405273 41.09428711 310.40405273 90.39428711 310.40405273 C90.39428711 303.14405273 90.39428711 295.88405273 90.39428711 288.40405273 C87.44241455 288.38947021 84.49054199 288.3748877 81.44921875 288.35986328 C70.49645886 288.30188797 59.54390469 288.22465335 48.59130859 288.14160156 C43.85110819 288.10834895 39.11086815 288.08031819 34.37060547 288.05761719 C27.55671299 288.02407934 20.74318379 287.97175917 13.92944336 287.91577148 C11.81039078 287.90938156 9.6913382 287.90299164 7.5080719 287.89640808 C5.52669724 287.87661392 3.54532257 287.85681976 1.50390625 287.83642578 C-1.10420204 287.81977119 -1.10420204 287.81977119 -3.76499939 287.80278015 C-14.06845047 286.95408947 -21.86098775 283.66668865 -26.77249527 274.24954319 C-28.65563327 269.2721051 -29.11178647 265.7904032 -29.12469482 260.50120544 C-29.13860764 258.75551773 -29.15252045 257.00983002 -29.16685486 255.21124268 C-29.16182449 253.31734802 -29.15679413 251.42345337 -29.15161133 249.47216797 C-29.16194901 247.46161819 -29.17228668 245.45106842 -29.18293762 243.3795929 C-29.21241201 236.74052945 -29.21386592 230.10177027 -29.21508789 223.46264648 C-29.23006622 218.85693275 -29.24679262 214.25122439 -29.26519775 209.64552307 C-29.30892147 197.52777869 -29.32888191 185.41010677 -29.34393311 173.29229736 C-29.36348573 160.9252086 -29.40545796 148.5581983 -29.44555664 136.19116211 C-29.52091355 111.92881649 -29.57117215 87.66648839 -29.60571289 63.40405273 C-37.85571289 63.40405273 -46.10571289 63.40405273 -54.60571289 63.40405273 Z M-101.60571289 109.40405273 C-101.70574655 112.55362775 -101.73204082 115.70552632 -101.73269653 118.85668945 C-101.73551636 120.92650085 -101.73833618 122.99631226 -101.74124146 125.12884521 C-101.73921722 127.42396057 -101.73719299 129.71907593 -101.73510742 132.08374023 C-101.73685974 134.48165833 -101.73861206 136.87957642 -101.74041748 139.35015869 C-101.74484144 147.32646393 -101.74189608 155.30274724 -101.73852539 163.27905273 C-101.73919827 168.79060877 -101.74016817 174.30216477 -101.74142456 179.8137207 C-101.74290227 191.38485014 -101.7408391 202.95597125 -101.73608398 214.52709961 C-101.7306413 227.92653603 -101.73240394 241.32595724 -101.73791039 254.7253933 C-101.74298549 267.58737779 -101.74246063 280.44935481 -101.73952866 293.31134033 C-101.73885884 298.79779055 -101.7396897 304.28424115 -101.74200821 309.77069092 C-101.7445315 317.42192634 -101.74069869 325.07313204 -101.73510742 332.72436523 C-101.73713165 335.01948059 -101.73915588 337.31459595 -101.74124146 339.67926025 C-101.73842163 341.74907166 -101.73560181 343.81888306 -101.73269653 345.95141602 C-101.73231951 347.763284 -101.73194248 349.57515198 -101.73155403 351.44192505 C-102.06540721 355.17245952 -102.06540721 355.17245952 -100.60571289 356.40405273 C-97.31774538 356.50471443 -94.02754486 356.53206078 -90.73803711 356.53344727 C-88.60164764 356.53659943 -86.46525818 356.53975159 -84.26412964 356.54299927 C-81.91989899 356.54097504 -79.57566833 356.53895081 -77.16040039 356.53686523 C-74.74615753 356.53782196 -72.33191467 356.53877869 -69.84451294 356.5397644 C-64.69427464 356.54044773 -59.54403549 356.53858292 -54.39379883 356.53442383 C-46.64670772 356.52916541 -38.89967696 356.53431723 -31.15258789 356.54077148 C-3.62081979 356.54410261 23.87683749 356.3169342 51.39428711 355.40405273 C51.39428711 348.47405273 51.39428711 341.54405273 51.39428711 334.40405273 C48.13948486 334.38947021 44.88468262 334.3748877 41.53125 334.35986328 C29.46033722 334.30191025 17.38961155 334.22467555 5.31884766 334.14160156 C0.09361812 334.10833845 -5.13164747 334.08031098 -10.35693359 334.05761719 C-17.86579763 334.02409866 -25.37433085 333.97177943 -32.88305664 333.91577148 C-35.22084702 333.90938156 -37.55863739 333.90299164 -39.9672699 333.89640808 C-42.14885208 333.87661392 -44.33043427 333.85681976 -46.578125 333.83642578 C-49.45270668 333.81977119 -49.45270668 333.81977119 -52.38536072 333.80278015 C-62.85126448 333.0034006 -70.76821568 329.84089605 -75.77417755 320.24912262 C-77.65789614 315.26600927 -78.10306748 311.80206161 -78.09777832 306.50793457 C-78.10997658 303.89157074 -78.10997658 303.89157074 -78.12242126 301.22235107 C-78.11110672 299.33002747 -78.09979218 297.43770386 -78.08813477 295.48803711 C-78.09400352 292.47462189 -78.09400352 292.47462189 -78.09999084 289.40032959 C-78.10596398 285.04445204 -78.10279936 280.68855454 -78.09156799 276.33268738 C-78.07434561 269.45094072 -78.08179249 262.5696155 -78.0958252 255.68786621 C-78.12118795 241.09323312 -78.11564171 226.49869893 -78.10571289 211.90405273 C-78.09421574 194.96861757 -78.09516718 178.03338587 -78.129776 161.09797668 C-78.1369116 154.29668999 -78.12014223 147.49571974 -78.10266113 140.69445801 C-78.10836371 136.55794092 -78.11517836 132.42142517 -78.12329102 128.28491211 C-78.11197647 126.37639465 -78.10066193 124.4678772 -78.08900452 122.50152588 C-78.10964179 118.13235411 -78.33341653 113.76478003 -78.60571289 109.40405273 C-83.1469991 108.26873118 -87.11356053 108.27158322 -91.79321289 108.27905273 C-94.22760742 108.27518555 -94.22760742 108.27518555 -96.71118164 108.27124023 C-100.3820365 107.95284434 -100.3820365 107.95284434 -101.60571289 109.40405273 Z"
    transform="translate(297.605712890625,127.595947265625)"
    fill="#FFB86C"
  />
</svg>
